<svg fill="none" height="210" viewBox="0 0 540 210" width="540" xmlns="http://www.w3.org/2000/svg" xmlns:xlink="http://www.w3.org/1999/xlink" class="sc-gtsrHT gfuSqG"><filter id="a" color-interpolation-filters="sRGB" filterUnits="userSpaceOnUse" height="28.1584" width="28.1214" x="-7.26367" y="-3.57886"><feFlood flood-opacity="0" result="BackgroundImageFix"></feFlood><feColorMatrix in="SourceAlpha" type="matrix" values="0 0 0 0 0 0 0 0 0 0 0 0 0 0 0 0 0 0 127 0"></feColorMatrix><feOffset dx="-4"></feOffset><feGaussianBlur stdDeviation="2"></feGaussianBlur><feColorMatrix type="matrix" values="0 0 0 0 0 0 0 0 0 0 0 0 0 0 0 0 0 0 0.23 0"></feColorMatrix><feBlend in2="BackgroundImageFix" mode="normal" result="effect1_dropShadow"></feBlend><feBlend in="SourceGraphic" in2="effect1_dropShadow" mode="normal" result="shape"></feBlend></filter><linearGradient id="b" gradientUnits="userSpaceOnUse" x1="6.04946" x2="25.1663" y1="4.69248" y2="12.8705"><stop offset="0.285554" stop-color="#2ed02a"></stop><stop offset="0.572917" stop-color="#1e961b"></stop></linearGradient><linearGradient id="c" gradientUnits="userSpaceOnUse" x1="52.148" x2="32.354" y1="6.46353" y2="14.2249"><stop offset="0.285554" stop-color="#2ed02a"></stop><stop offset="0.762026" stop-color="#1e961b"></stop></linearGradient><mask id="d" height="21" maskUnits="userSpaceOnUse" width="54" x="0" y="0"><path clip-rule="evenodd" d="m10.797.421143c-5.55634 0-10.060672 4.512607-10.060672 10.079157 0 5.5666 4.504332 10.0792 10.060672 10.0792 3.2936 0 6.2176-1.5855 8.0529-4.0363 1.8352 2.4508 4.7592 4.0363 8.0528 4.0363 3.2872 0 6.2063-1.5795 8.0422-4.0222 1.8359 2.4427 4.755 4.0222 8.0422 4.0222 5.5564 0 10.0608-4.5126 10.0608-10.0792 0-5.56655-4.5044-10.079157-10.0608-10.079157-3.2872 0-6.2063 1.579487-8.0422 4.022247-1.8359-2.44276-4.755-4.022247-8.0422-4.022247-3.2936 0-6.2176 1.585567-8.0528 4.036347-1.8353-2.45078-4.7593-4.036347-8.0529-4.036347zm-6.03638 10.079157c0 3.34 2.7026 6.0475 6.03638 6.0475 3.3339 0 6.0365-2.7075 6.0365-6.0475 0-3.33992-2.7026-6.04748-6.0365-6.04748-3.33378 0-6.03638 2.70756-6.03638 6.04748zm32.19798.3127c.0032-.1038.0048-.2081.0048-.3127s-.0016-.2088-.0048-.3127c.1625-3.19458 2.7994-5.73478 6.0285-5.73478 3.3339 0 6.0365 2.70756 6.0365 6.04748 0 3.34-2.7026 6.0475-6.0365 6.0475-3.2291 0-5.866-2.5402-6.0285-5.7348zm-4.0274-.6254c-.1624-3.19458-2.7994-5.73478-6.0285-5.73478-3.3339 0-6.0365 2.70756-6.0365 6.04748 0 3.34 2.7026 6.0475 6.0365 6.0475 3.2291 0 5.8661-2.5402 6.0285-5.7348-.0032-.1038-.0048-.2081-.0048-.3127s.0016-.2088.0048-.3127z" fill="#1e961b" fill-rule="evenodd"></path></mask><g mask="url(#d)"><g filter="url(#a)"><path clip-rule="evenodd" d="m4.76061 10.5003c0 3.34 2.70261 6.0475 6.03639 6.0475 3.3339 0 6.0365-2.7075 6.0365-6.0475 0-3.33992-2.7026-6.04748-6.0365-6.04748-3.33378 0-6.03639 2.70756-6.03639 6.04748zm6.03639-10.079157c-5.55634 0-10.060672 4.512607-10.060672 10.079157 0 5.5666 4.504332 10.0792 10.060672 10.0792 5.5564 0 10.0608-4.5126 10.0608-10.0792 0-5.56655-4.5044-10.079157-10.0608-10.079157z" fill="url(#b)" fill-rule="evenodd"></path></g><path clip-rule="evenodd" d="m36.9501 10.5003c0 3.34 2.7026 6.0475 6.0364 6.0475s6.0364-2.7075 6.0364-6.0475c0-3.33992-2.7026-6.04748-6.0364-6.04748s-6.0364 2.70756-6.0364 6.04748zm6.0364-10.079157c-5.5564 0-10.0607 4.512607-10.0607 10.079157 0 5.5666 4.5043 10.0792 10.0607 10.0792s10.0607-4.5126 10.0607-10.0792c0-5.56655-4.5043-10.079157-10.0607-10.079157z" fill="url(#c)" fill-rule="evenodd"></path><path clip-rule="evenodd" d="m20.8661 10.5003c0 3.34 2.7026 6.0475 6.0364 6.0475s6.0364-2.7075 6.0364-6.0475c0-3.33992-2.7026-6.04748-6.0364-6.04748s-6.0364 2.70756-6.0364 6.04748zm6.0364-10.079157c-5.5564 0-10.0607 4.512607-10.0607 10.079157 0 5.5666 4.5043 10.0792 10.0607 10.0792s10.0607-4.5126 10.0607-10.0792c0-5.56655-4.5043-10.079157-10.0607-10.079157z" fill="#1e961b" fill-rule="evenodd"></path><path d="m26.8895 16.5482c-3.3338 0-6.0364-2.7075-6.0365-6.0474h.0048c0-5.56656-4.5044-10.079169-10.0608-10.079169-5.55633 0-10.060672 4.512609-10.060672 10.079169h4.024282c0-3.33993 2.70261-6.0475 6.03639-6.0475 3.3338 0 6.0364 2.70751 6.0365 6.0474h-.0048c0 5.5666 4.5044 10.0792 10.0608 10.0792 5.5563 0 10.0606-4.5126 10.0607-10.0791h.0004c0-3.33993 2.7026-6.04749 6.0364-6.04749 3.3339 0 6.0365 2.70756 6.0365 6.04749h4.0243c0-5.56656-4.5044-10.079169-10.0608-10.079169-5.5563 0-10.0606 4.512549-10.0607 10.079069h-.0004c0 3.3399-2.7026 6.0475-6.0364 6.0475z" fill="#f2f8ff"></path><path d="m26.8895 16.5482c-3.3338 0-6.0364-2.7075-6.0365-6.0474h.0048c0-5.56656-4.5044-10.079169-10.0608-10.079169-5.55633 0-10.060672 4.512609-10.060672 10.079169h4.024282c0-3.33993 2.70261-6.0475 6.03639-6.0475 3.3338 0 6.0364 2.70751 6.0365 6.0474h-.0048c0 5.5666 4.5044 10.0792 10.0608 10.0792 5.5563 0 10.0606-4.5126 10.0607-10.0791h.0004c0-3.33993 2.7026-6.04749 6.0364-6.04749 3.3339 0 6.0365 2.70756 6.0365 6.04749h4.0243c0-5.56656-4.5044-10.079169-10.0608-10.079169-5.5563 0-10.0606 4.512549-10.0607 10.079069h-.0004c0 3.3399-2.7026 6.0475-6.0364 6.0475z" fill="#2ed02a"></path></g></svg>